<svg xmlns="http://www.w3.org/2000/svg" style="display:block" viewBox="0 0 1024 1024" width="256" height="256" ><path d="M0 0h1024v1024H0V0Z" style="fill:#fefefe"/><path d="m0 0 2.738 2.191A764.268 764.268 0 0 1 11 9l2.883 2.316c8.643 7.06 16.53 14.88 24.43 22.746l1.695 1.68C47.146 42.83 53.753 50.102 60 58c1.108 1.34 2.22 2.678 3.336 4.012A308.283 308.283 0 0 1 84 90l1.432 2.166c47.264 71.787 72.902 165.114 60.923 251.26-.41 2.98-.77 5.963-1.132 8.949C138.46 405.715 121.213 459.551 92 505l-1.593 2.481C77.121 528.032 62.497 546.939 46 565l-2.652 2.934C35.018 577.123 26.453 585.954 17 594l-3.152 2.746C-1.252 609.88-17.207 621.12-34 632l-2.117 1.372c-81.288 52.058-184.415 68.211-278.333 48.113C-373.031 668.267-429.717 642.632-476 604l-3.066-2.543c-10.697-8.924-20.875-18.318-30.747-28.144l-2.137-2.124c-24.198-24.272-43.72-53.068-59.936-83.141a339.347 339.347 0 0 0-3.09-5.525C-596.437 444.11-608.505 400.267-615 357l-.5-3.292c-4.525-31.264-4.856-65.401-.5-96.708l.473-3.407C-606.225 188.975-583.157 127.488-544 75l1.225-1.646c5.846-7.815 11.99-15.352 18.375-22.733.96-1.11 1.912-2.228 2.858-3.35 5.099-5.964 10.602-11.517 16.147-17.061 1.633-1.636 3.258-3.28 4.883-4.923C-493.996 18.737-487.25 12.743-480 7a585.798 585.798 0 0 0 3.836-3.23C-422.244-41.523-350.626-69.503-281-77l2.728-.312C-182.998-87.891-82.246-63.572 0 0Z" style="fill:#0c243e" transform="translate(747 208)"/><path d="m0 0 3.815-.012 4.23.003 4.465-.009c4.103-.008 8.207-.01 12.31-.01 4.42-.002 8.84-.01 13.26-.017 9.672-.013 19.343-.02 29.015-.024L85.199-.08c16.697-.012 33.394-.023 50.09-.026h3.241l3.248-.001 6.516-.002h3.265c17.467-.004 34.933-.022 52.4-.045 17.917-.024 35.835-.036 53.752-.038 10.066 0 20.133-.006 30.199-.024 8.57-.016 17.14-.02 25.71-.013 4.375.004 8.75.003 13.125-.01 4.002-.013 8.004-.012 12.006 0 1.45.002 2.901-.001 4.352-.01 1.967-.01 3.933-.002 5.9.008l3.315-.001c3.185.423 4.542 1.127 6.81 3.373 1.264 3.795 1.171 7.369 1.192 11.324l.025 2.573c.025 2.812.041 5.624.056 8.435l.016 2.911c.026 5.084.046 10.168.06 15.252.014 4.207.042 8.413.082 12.62.05 5.08.074 10.16.082 15.241.006 1.935.021 3.87.045 5.805.032 2.71.032 5.418.025 8.128l.05 2.414-.026 2.255.01 1.938c-1.025 3.49-2.712 5.987-5.618 8.104-3.337.873-6.58.792-10.014.733l-3.081.02c-3.412.014-6.823-.015-10.235-.043-2.444.002-4.888.006-7.332.013-5.266.009-10.531 0-15.797-.025-7.62-.036-15.239-.035-22.859-.024-12.371.018-24.742.011-37.114-.013l-2.243-.005-8.998-.018c-8.255-.016-16.51-.028-24.765-.037l-2.24-.003c-12.323-.013-24.647-.01-36.971.001-7.6.007-15.2-.002-22.8-.031a3770.31 3770.31 0 0 0-17.47-.017c-2.389 0-4.778-.009-7.166-.024-3.259-.02-6.516-.016-9.774-.005l-2.873-.036c-5.73.05-8.868.763-13.268 4.514-2.173 3.063-2.26 5.707-2.29 9.408l-.039 3.277-.007 3.526-.02 3.64c-.01 2.54-.015 5.08-.014 7.62-.005 3.883-.041 7.764-.079 11.647-.006 2.468-.01 4.937-.012 7.406l-.043 3.514c.035 6.242.114 10.327 4.504 14.962 3.76 2.62 7.828 2.275 12.23 2.245l2.537.007c2.809.005 5.617-.003 8.426-.012 2.012.001 4.025.003 6.037.006 4.335.005 8.67.004 13.005-.002 6.853-.007 13.706.003 20.56.017 19.487.038 38.975.056 58.462.045 10.761-.006 21.523.005 32.284.036 6.814.019 13.628.016 20.443-.004 4.237-.007 8.474.007 12.712.027 1.966.005 3.933.002 5.9-.011 2.683-.016 5.364-.002 8.047.02l2.365-.036c3.954.067 5.807.52 8.975 2.96 2.72 3.643 2.72 6.786 2.664 11.161l.027 2.545c.022 2.769.007 5.536-.01 8.305.004 1.93.008 3.858.015 5.787.007 4.041-.004 8.082-.027 12.122-.028 5.174-.012 10.345.018 15.519.018 3.983.012 7.966 0 11.949-.004 1.907 0 3.814.012 5.72a527.06 527.06 0 0 1-.035 8.006l.03 2.376c-.109 5.708-1.59 8.218-5.677 12.212-3.133 1.567-6.474 1.143-9.913 1.138l-2.507.009c-2.787.008-5.575.01-8.362.011l-5.977.016c-4.298.01-8.596.02-12.894.026-6.794.01-13.588.03-20.382.053-19.322.062-38.644.116-57.967.149-10.665.018-21.33.047-31.995.088-5.647.02-11.294.036-16.94.039-5.312.002-10.623.018-15.934.044-1.951.007-3.902.01-5.852.006-2.661-.004-5.322.01-7.982.03l-2.346-.017c-4.495.055-7.369.642-10.949 3.408-3.014 3.838-3.386 6.812-3.432 11.627l-.031 1.953c-.03 2.115-.04 4.23-.049 6.346-.016 1.473-.035 2.945-.054 4.418-.047 3.865-.077 7.73-.103 11.595-.03 3.948-.077 7.896-.122 11.845a5931.19 5931.19 0 0 0-.209 23.216c-13.769.094-27.537.164-41.306.208-6.394.02-12.786.049-19.18.094-6.166.044-12.332.068-18.498.078-2.356.007-4.712.022-7.068.043-3.292.03-6.584.033-9.877.032l-2.97.043c-.897-.005-1.793-.01-2.716-.017l-2.36.012c-2.025-.493-2.025-.493-3.628-2.165-1.739-2.897-1.774-4.7-1.777-8.069l-.026-3.572.019-3.928a2006.564 2006.564 0 0 1-.02-15.64c.005-4.123-.007-8.245-.018-12.367-.017-8.077-.018-16.154-.012-24.231.004-6.564.002-13.127-.003-19.69l-.002-2.829-.005-5.688c-.014-17.788-.008-35.577.003-53.366.01-16.282-.003-32.564-.027-48.847-.024-16.71-.034-33.419-.027-50.129.003-9.385.001-18.77-.016-28.154-.015-7.99-.016-15.978.002-23.967.008-4.078.01-8.155-.005-12.233-.014-3.731-.01-7.462.01-11.193.006-1.993-.008-3.985-.023-5.977l.03-3.58v-3.09c.635-3.526 2.053-5.211 4.5-7.778C-5.159-.225-3.04.003 0 0Z" style="fill:#fefefe" transform="translate(343.873 288.869)"/><path d="m0 0 2.715-.012L5.686.02 8.82.02c3.426.002 6.85.025 10.276.049a5397.257 5397.257 0 0 1 25.863.087c6.374.03 12.748.044 19.123.06 12.511.031 25.022.082 37.533.146.07 8.65.123 17.298.156 25.948.015 4.016.036 8.033.07 12.05.033 3.876.05 7.754.059 11.631.005 1.478.016 2.956.032 4.434.022 2.073.025 4.146.024 6.219l.02 3.573c-.523 4.56-1.99 6.98-5.466 9.933-4.106 1.719-7.802 1.63-12.212 1.6l-2.82.016c-3.07.013-6.14.004-9.21-.006-2.136.002-4.272.005-6.407.009-4.473.004-8.946-.002-13.419-.016-5.736-.017-11.471-.007-17.207.01-4.409.011-8.817.008-13.226 0-2.115-.002-4.23 0-6.345.008-2.954.007-5.908-.004-8.862-.021l-2.653.018c-3.53-.037-5.894-.065-9.046-1.743-2.956-3.304-2.624-6.793-2.65-11.015l-.028-3.974c-.005-1.433-.01-2.866-.013-4.3l-.017-4.404c-.01-3.077-.017-6.153-.02-9.23-.006-3.945-.03-7.889-.058-11.833a1614.89 1614.89 0 0 1-.026-9.095 629.116 629.116 0 0 0-.024-4.364 571.621 571.621 0 0 1-.008-6.097l-.011-3.505c.367-2.846.367-2.846 1.616-4.502C-3.929.011-2.763-.01 0 0Z" style="fill:#fefefe" transform="translate(339.385 658.64)"/><path d="M0 0c.25 6.65-.26 12.57-2 19h-1V1c2-1 2-1 3-1Z" style="fill:#1a2a42" transform="translate(132 488)"/><path d="m0 0 1 3a510153070.554 510153070.554 0 0 1-7.52 6.836C-9 12-9 12-12 14c1.587-3.903 4.134-6.335 7.125-9.25l2.758-2.703L0 0Z" style="fill:#020b1d" transform="translate(241 239)"/><path d="m0 0 1 3-12-1C-6.784-.108-4.602-.177 0 0Z" style="fill:#212d40" transform="translate(468 892)"/></svg>